<?xml version="1.0" encoding="utf-8"?>
<!-- Generator: Adobe Illustrator 24.3.0, SVG Export Plug-In . SVG Version: 6.00 Build 0)  -->
<svg version="1.1" id="Layer_1" xmlns="http://www.w3.org/2000/svg" xmlns:xlink="http://www.w3.org/1999/xlink" x="0px" y="0px"
	 viewBox="0 0 24 24" style="enable-background:new 0 0 24 24;" xml:space="preserve">
<style type="text/css">
	.st0{fill:#D94535;}
	.st1{display:none;}
	.st2{display:inline;}
</style>
<g id="Layer_1_1_">
	<g>
		<path class="st0" d="M20.3,1.8c0.5,0,0.8,0.4,0.8,0.8v18.9c0,0.5-0.4,0.8-0.8,0.8H3.7c-0.5,0-0.8-0.4-0.8-0.8V2.6
			c0-0.5,0.4-0.8,0.8-0.8H20.3 M20.3,0.8H3.7c-1,0-1.8,0.8-1.8,1.8v18.9c0,1,0.8,1.8,1.8,1.8h16.7c1,0,1.8-0.8,1.8-1.8V2.6
			C22.2,1.6,21.4,0.8,20.3,0.8L20.3,0.8z"/>
	</g>
	<g>
		<circle class="st0" cx="6.7" cy="5.4" r="1.5"/>
	</g>
	<path class="st0" d="M18.6,6H9.8C9.5,6,9.3,5.8,9.3,5.5S9.5,5,9.8,5h8.8c0.3,0,0.5,0.2,0.5,0.5S18.9,6,18.6,6z"/>
	<path class="st0" d="M18.6,9.5H5.7C5.4,9.5,5.2,9.3,5.2,9s0.2-0.5,0.5-0.5h12.9c0.3,0,0.5,0.2,0.5,0.5S18.9,9.5,18.6,9.5z"/>
	<path class="st0" d="M18.6,12H5.7c-0.3,0-0.5-0.2-0.5-0.5S5.4,11,5.7,11h12.9c0.3,0,0.5,0.2,0.5,0.5S18.9,12,18.6,12z"/>
	<path class="st0" d="M18.6,14.5H5.7c-0.3,0-0.5-0.2-0.5-0.5s0.2-0.5,0.5-0.5h12.9c0.3,0,0.5,0.2,0.5,0.5S18.9,14.5,18.6,14.5z"/>
	<path class="st0" d="M18.6,17H5.7c-0.3,0-0.5-0.2-0.5-0.5S5.4,16,5.7,16h12.9c0.3,0,0.5,0.2,0.5,0.5S18.9,17,18.6,17z"/>
	<path class="st0" d="M18.6,19.5H5.7c-0.3,0-0.5-0.2-0.5-0.5s0.2-0.5,0.5-0.5h12.9c0.3,0,0.5,0.2,0.5,0.5S18.9,19.5,18.6,19.5z"/>
</g>
<g id="Layer_2_1_" class="st1">
	<g id="OwZYI2.tif" class="st2">
		<g>
			<path d="M21.2,23.4c-6.2,0-12.4,0-18.6,0c-0.1,0-0.1,0-0.2-0.1c-0.9-0.1-1.6-0.8-1.7-1.6c0-0.1,0-0.2-0.1-0.3
				c0-6.2,0-12.4,0-18.6c0-0.1,0-0.1,0.1-0.2C0.8,1.8,1.2,1.2,2,0.9c0.3-0.1,0.5-0.1,0.8-0.1c6,0,12.1,0,18.1,0c0.5,0,1,0.1,1.4,0.4
				C23,1.7,23.2,2.3,23.2,3c0,5.9,0,11.8,0,17.7c0,0.3,0,0.5,0,0.8c-0.1,0.9-0.7,1.6-1.6,1.8C21.4,23.3,21.3,23.3,21.2,23.4z
				 M13,10.4c0-0.3,0-0.5,0-0.7C13,9.3,12.8,9,12.3,9c-0.8,0-1.6,0-2.4,0C9.5,9,9.2,9.2,9.2,9.7c0,3.5,0,7,0,10.5
				c0,0.5,0.2,0.7,0.7,0.7c0.8,0,1.6,0,2.4,0c0.5,0,0.7-0.2,0.7-0.7c0-1.8,0-3.6,0-5.4c0-0.6,0.1-1.1,0.4-1.7c0.4-0.7,1-1.1,1.9-1.1
				c0.8,0.1,1.3,0.5,1.5,1.4c0.1,0.4,0.2,0.8,0.2,1.3c0,1.8,0,3.6,0,5.4c0,0.5,0.2,0.7,0.7,0.7c0.8,0,1.6,0,2.4,0
				c0.5,0,0.7-0.2,0.7-0.7c0-2.1,0-4.3,0-6.4c0-0.9-0.1-1.7-0.5-2.5C19.9,10.1,19.1,9.4,18,9c-0.9-0.3-1.7-0.3-2.6-0.1
				C14.5,9,13.8,9.4,13.2,10C13.2,10.2,13.1,10.3,13,10.4z M3.9,15c0,1.7,0,3.5,0,5.2c0,0.5,0.2,0.7,0.8,0.7c0.7,0,1.4,0,2.2,0
				c0.6,0,0.9-0.2,0.9-0.9c0-3.4,0-6.8,0-10.2c0-0.1,0-0.1,0-0.2c0-0.4-0.3-0.7-0.7-0.7c-0.8,0-1.6,0-2.4,0C4.2,8.9,4,9.1,4,9.6
				C3.9,11.5,3.9,13.2,3.9,15z M8.2,5.7c0-1.3-1.1-2.5-2.4-2.4c-1.3,0-2.4,1-2.4,2.4c0,1.3,1.1,2.4,2.4,2.4S8.2,7,8.2,5.7z"/>
		</g>
	</g>
</g>
</svg>
